<mxfile host="app.diagrams.net" modified="2022-11-28T04:28:15.088Z" agent="5.0 (Macintosh; Intel Mac OS X 10_15_7) AppleWebKit/537.36 (KHTML, like Gecko) Chrome/107.0.0.0 Safari/537.36" etag="KMv0k-W6EA4ZG6Bh1A-f" version="20.5.3" type="github">
  <diagram id="TbmGXpDHceZsLnAmSvEN" name="Page-1">
    <mxGraphModel dx="456" dy="646" grid="1" gridSize="10" guides="1" tooltips="1" connect="1" arrows="1" fold="1" page="1" pageScale="1" pageWidth="850" pageHeight="1100" math="0" shadow="0">
      <root>
        <mxCell id="0" />
        <mxCell id="1" parent="0" />
        <mxCell id="eRfJgCVr0TSFVgp93IVR-1" value="" style="rounded=1;whiteSpace=wrap;html=1;" vertex="1" parent="1">
          <mxGeometry x="60" y="130" width="190" height="200" as="geometry" />
        </mxCell>
        <mxCell id="eRfJgCVr0TSFVgp93IVR-2" value="音源定位・追跡" style="rounded=1;whiteSpace=wrap;html=1;" vertex="1" parent="1">
          <mxGeometry x="80" y="150" width="150" height="40" as="geometry" />
        </mxCell>
        <mxCell id="eRfJgCVr0TSFVgp93IVR-3" value="音源分離・強調" style="rounded=1;whiteSpace=wrap;html=1;" vertex="1" parent="1">
          <mxGeometry x="80" y="210" width="150" height="40" as="geometry" />
        </mxCell>
        <mxCell id="eRfJgCVr0TSFVgp93IVR-4" value="音声認識" style="rounded=1;whiteSpace=wrap;html=1;" vertex="1" parent="1">
          <mxGeometry x="80" y="270" width="150" height="40" as="geometry" />
        </mxCell>
        <mxCell id="eRfJgCVr0TSFVgp93IVR-5" value="&lt;font style=&quot;font-size: 24px;&quot;&gt;HARK&lt;/font&gt;" style="text;html=1;strokeColor=none;fillColor=none;align=center;verticalAlign=middle;whiteSpace=wrap;rounded=0;" vertex="1" parent="1">
          <mxGeometry x="200" y="118" width="60" height="30" as="geometry" />
        </mxCell>
        <mxCell id="eRfJgCVr0TSFVgp93IVR-6" value="" style="shape=image;html=1;verticalAlign=top;verticalLabelPosition=bottom;labelBackgroundColor=#ffffff;imageAspect=0;aspect=fixed;image=https://cdn4.iconfinder.com/data/icons/ionicons/512/icon-mic-b-128.png;fontSize=18;" vertex="1" parent="1">
          <mxGeometry x="136" y="40" width="38" height="38" as="geometry" />
        </mxCell>
        <mxCell id="eRfJgCVr0TSFVgp93IVR-7" value="" style="shape=image;html=1;verticalAlign=top;verticalLabelPosition=bottom;labelBackgroundColor=#ffffff;imageAspect=0;aspect=fixed;image=https://cdn4.iconfinder.com/data/icons/ionicons/512/icon-mic-b-128.png;fontSize=18;" vertex="1" parent="1">
          <mxGeometry x="150" y="60" width="38" height="38" as="geometry" />
        </mxCell>
        <mxCell id="eRfJgCVr0TSFVgp93IVR-8" value="" style="shape=image;html=1;verticalAlign=top;verticalLabelPosition=bottom;labelBackgroundColor=#ffffff;imageAspect=0;aspect=fixed;image=https://cdn4.iconfinder.com/data/icons/ionicons/512/icon-mic-b-128.png;fontSize=18;" vertex="1" parent="1">
          <mxGeometry x="120" y="60" width="38" height="38" as="geometry" />
        </mxCell>
        <mxCell id="eRfJgCVr0TSFVgp93IVR-9" value="&lt;font style=&quot;font-size: 12px;&quot;&gt;マイクロホンアレイ&amp;nbsp;&lt;/font&gt;" style="text;html=1;strokeColor=none;fillColor=none;align=center;verticalAlign=middle;whiteSpace=wrap;rounded=0;fontSize=18;" vertex="1" parent="1">
          <mxGeometry x="95" y="98" width="120" height="20" as="geometry" />
        </mxCell>
        <mxCell id="eRfJgCVr0TSFVgp93IVR-10" value="" style="shape=flexArrow;endArrow=classic;html=1;rounded=0;fontSize=12;endWidth=20;endSize=3.67;width=16;fillColor=#000000;" edge="1" parent="1">
          <mxGeometry width="50" height="50" relative="1" as="geometry">
            <mxPoint x="154.5" y="190" as="sourcePoint" />
            <mxPoint x="154.5" y="210" as="targetPoint" />
          </mxGeometry>
        </mxCell>
        <mxCell id="eRfJgCVr0TSFVgp93IVR-16" value="" style="shape=flexArrow;endArrow=classic;html=1;rounded=0;fontSize=12;endWidth=20;endSize=3.67;width=16;fillColor=#000000;" edge="1" parent="1">
          <mxGeometry width="50" height="50" relative="1" as="geometry">
            <mxPoint x="154.5" y="320" as="sourcePoint" />
            <mxPoint x="154.5" y="340" as="targetPoint" />
          </mxGeometry>
        </mxCell>
        <mxCell id="eRfJgCVr0TSFVgp93IVR-17" value="" style="shape=flexArrow;endArrow=classic;html=1;rounded=0;fontSize=12;endWidth=20;endSize=3.67;width=16;fillColor=#000000;" edge="1" parent="1">
          <mxGeometry width="50" height="50" relative="1" as="geometry">
            <mxPoint x="154.5" y="250" as="sourcePoint" />
            <mxPoint x="154.5" y="270" as="targetPoint" />
          </mxGeometry>
        </mxCell>
        <mxCell id="eRfJgCVr0TSFVgp93IVR-18" value="" style="shape=flexArrow;endArrow=classic;html=1;rounded=0;fontSize=12;endWidth=20;endSize=3.67;width=16;fillColor=#000000;" edge="1" parent="1">
          <mxGeometry width="50" height="50" relative="1" as="geometry">
            <mxPoint x="154.5" y="120" as="sourcePoint" />
            <mxPoint x="154.5" y="140" as="targetPoint" />
          </mxGeometry>
        </mxCell>
        <mxCell id="eRfJgCVr0TSFVgp93IVR-22" value="対話・アプリケーション" style="rounded=1;whiteSpace=wrap;html=1;" vertex="1" parent="1">
          <mxGeometry x="80" y="350" width="150" height="40" as="geometry" />
        </mxCell>
      </root>
    </mxGraphModel>
  </diagram>
</mxfile>
